<svg width="110" height="59" viewBox="0 0 110 59" fill="none" xmlns="http://www.w3.org/2000/svg">
<circle cx="96.5" cy="5.74924" r="5" fill="white" fill-opacity="0.2"/>
<circle cx="100.5" cy="49.2492" r="9" fill="white" fill-opacity="0.2"/>
<circle cx="8" cy="28.9992" r="7.5" fill="white" fill-opacity="0.2"/>
<path d="M55 33.357V35.857V33.357ZM47.5 40.857H62.5C63.163 40.857 63.7989 40.5936 64.2678 40.1248C64.7366 39.656 65 39.0201 65 38.357V30.857C65 30.194 64.7366 29.5581 64.2678 29.0893C63.7989 28.6204 63.163 28.357 62.5 28.357H47.5C46.837 28.357 46.2011 28.6204 45.7322 29.0893C45.2634 29.5581 45 30.194 45 30.857V38.357C45 39.0201 45.2634 39.656 45.7322 40.1248C46.2011 40.5936 46.837 40.857 47.5 40.857ZM60 28.357V23.357C60 22.0309 59.4732 20.7592 58.5355 19.8215C57.5979 18.8838 56.3261 18.357 55 18.357C53.6739 18.357 52.4021 18.8838 51.4645 19.8215C50.5268 20.7592 50 22.0309 50 23.357V28.357H60Z" stroke="white" stroke-linecap="round" stroke-linejoin="round"/>
<path d="M78.9389 13.4987C70.1558 13.9651 61.5465 10.9282 55 5.05426C48.4535 10.9282 39.8442 13.9651 31.0611 13.4987C30.3543 16.2351 29.9977 19.0502 30 21.8765C30 37.407 40.6222 50.4598 55 54.1598C69.3778 50.4598 80 37.4098 80 21.8765C80 18.982 79.6306 16.1765 78.9389 13.4987Z" stroke="white" stroke-linecap="round" stroke-linejoin="round"/>
</svg>
