<svg width="360" height="271" viewBox="0 0 360 271" fill="none" xmlns="http://www.w3.org/2000/svg">
<path d="M359.936 0.172631C359.936 84.244 359.936 168.402 359.936 252.473C359.936 254.113 360.54 256.098 358.037 256.616C332.315 247.553 305.816 243.928 278.627 244.618C272.153 244.791 265.766 245.05 259.292 245.309C256.098 246.345 252.646 244.791 249.538 246.258C249.193 246.345 248.848 246.431 248.503 246.517C244.187 246.345 239.957 246.863 235.814 247.898C224.507 249.797 213.199 251.696 201.892 253.681C178.155 257.825 154.505 262.831 130.682 266.37C95.2061 271.549 59.7304 273.448 24.4273 265.161C16.141 263.263 8.19998 260.328 0.0863156 258.084C0.0863156 173.235 0.0863156 88.3872 0 3.53894C0 1.1221 0.258947 0 3.19368 0C121.791 0.0863156 240.475 0.0863156 359.073 0.0863156C359.418 0.0863156 359.677 0.172631 359.936 0.172631Z" fill="#100F5C"/>
</svg>
